<mxfile host="app.diagrams.net" modified="2022-09-05T01:45:08.530Z" agent="5.0 (Windows NT 10.0; Win64; x64) AppleWebKit/537.36 (KHTML, like Gecko) Chrome/104.0.0.0 Safari/537.36" etag="qqxJmln1plJDrOY8dSs-" version="20.2.8" type="github">
  <diagram id="ms_jMZr8o57xnnPuSVnw" name="Trang-1">
    <mxGraphModel dx="1847" dy="519" grid="1" gridSize="10" guides="1" tooltips="1" connect="1" arrows="1" fold="1" page="1" pageScale="1" pageWidth="827" pageHeight="1169" math="0" shadow="0">
      <root>
        <mxCell id="0" />
        <mxCell id="1" parent="0" />
        <mxCell id="xyJbHVWMSOcL-0cqDFhM-46" value="" style="endArrow=classic;html=1;rounded=0;strokeWidth=2;fontSize=16;exitX=1;exitY=0.25;exitDx=0;exitDy=0;entryX=0.055;entryY=0.544;entryDx=0;entryDy=0;entryPerimeter=0;" parent="1" source="xyJbHVWMSOcL-0cqDFhM-37" target="xyJbHVWMSOcL-0cqDFhM-38" edge="1">
          <mxGeometry width="50" height="50" relative="1" as="geometry">
            <mxPoint x="330" y="440" as="sourcePoint" />
            <mxPoint x="380" y="390" as="targetPoint" />
          </mxGeometry>
        </mxCell>
        <mxCell id="xyJbHVWMSOcL-0cqDFhM-2" value="&lt;b&gt;&lt;font style=&quot;font-size: 16px;&quot;&gt;Kafka&lt;/font&gt;&lt;/b&gt;" style="whiteSpace=wrap;html=1;aspect=fixed;strokeWidth=2;" parent="1" vertex="1">
          <mxGeometry x="80" y="80" width="80" height="80" as="geometry" />
        </mxCell>
        <mxCell id="xyJbHVWMSOcL-0cqDFhM-3" value="&lt;b&gt;&lt;font style=&quot;font-size: 16px;&quot;&gt;Spark&lt;/font&gt;&lt;/b&gt;" style="whiteSpace=wrap;html=1;aspect=fixed;strokeWidth=2;" parent="1" vertex="1">
          <mxGeometry x="260" y="80" width="80" height="80" as="geometry" />
        </mxCell>
        <mxCell id="xyJbHVWMSOcL-0cqDFhM-4" value="&lt;b&gt;&lt;font style=&quot;font-size: 16px;&quot;&gt;Cassandra&lt;/font&gt;&lt;/b&gt;" style="whiteSpace=wrap;html=1;aspect=fixed;strokeWidth=2;" parent="1" vertex="1">
          <mxGeometry x="440" y="80" width="80" height="80" as="geometry" />
        </mxCell>
        <mxCell id="xyJbHVWMSOcL-0cqDFhM-5" value="&lt;b&gt;&lt;font style=&quot;font-size: 16px;&quot;&gt;Zeppelin&lt;/font&gt;&lt;/b&gt;" style="whiteSpace=wrap;html=1;aspect=fixed;strokeWidth=2;" parent="1" vertex="1">
          <mxGeometry x="620" y="80" width="80" height="80" as="geometry" />
        </mxCell>
        <mxCell id="xyJbHVWMSOcL-0cqDFhM-6" value="" style="endArrow=none;dashed=1;html=1;dashPattern=1 3;strokeWidth=2;rounded=0;fontSize=16;entryX=0.5;entryY=1;entryDx=0;entryDy=0;exitX=0.5;exitY=0;exitDx=0;exitDy=0;" parent="1" source="xyJbHVWMSOcL-0cqDFhM-10" target="xyJbHVWMSOcL-0cqDFhM-2" edge="1">
          <mxGeometry width="50" height="50" relative="1" as="geometry">
            <mxPoint x="200" y="300" as="sourcePoint" />
            <mxPoint x="440" y="210" as="targetPoint" />
          </mxGeometry>
        </mxCell>
        <mxCell id="xyJbHVWMSOcL-0cqDFhM-7" value="" style="endArrow=none;dashed=1;html=1;dashPattern=1 3;strokeWidth=2;rounded=0;fontSize=16;entryX=0.5;entryY=1;entryDx=0;entryDy=0;exitX=0.5;exitY=0;exitDx=0;exitDy=0;" parent="1" source="xyJbHVWMSOcL-0cqDFhM-34" target="xyJbHVWMSOcL-0cqDFhM-3" edge="1">
          <mxGeometry width="50" height="50" relative="1" as="geometry">
            <mxPoint x="410" y="570" as="sourcePoint" />
            <mxPoint x="400" y="300" as="targetPoint" />
          </mxGeometry>
        </mxCell>
        <mxCell id="xyJbHVWMSOcL-0cqDFhM-8" value="" style="endArrow=none;dashed=1;html=1;dashPattern=1 3;strokeWidth=2;rounded=0;fontSize=16;exitX=0.5;exitY=0;exitDx=0;exitDy=0;" parent="1" source="xyJbHVWMSOcL-0cqDFhM-38" edge="1">
          <mxGeometry width="50" height="50" relative="1" as="geometry">
            <mxPoint x="479.5" y="290" as="sourcePoint" />
            <mxPoint x="480" y="160" as="targetPoint" />
          </mxGeometry>
        </mxCell>
        <mxCell id="xyJbHVWMSOcL-0cqDFhM-9" value="" style="endArrow=none;dashed=1;html=1;dashPattern=1 3;strokeWidth=2;rounded=0;fontSize=16;entryX=0.5;entryY=1;entryDx=0;entryDy=0;exitX=0.5;exitY=0;exitDx=0;exitDy=0;" parent="1" source="xyJbHVWMSOcL-0cqDFhM-42" edge="1">
          <mxGeometry width="50" height="50" relative="1" as="geometry">
            <mxPoint x="660" y="310" as="sourcePoint" />
            <mxPoint x="659.5" y="160" as="targetPoint" />
          </mxGeometry>
        </mxCell>
        <mxCell id="xyJbHVWMSOcL-0cqDFhM-16" value="" style="endArrow=none;dashed=1;html=1;dashPattern=1 3;strokeWidth=2;rounded=0;fontSize=16;entryX=0.5;entryY=1;entryDx=0;entryDy=0;" parent="1" target="xyJbHVWMSOcL-0cqDFhM-10" edge="1">
          <mxGeometry width="50" height="50" relative="1" as="geometry">
            <mxPoint x="120" y="720" as="sourcePoint" />
            <mxPoint x="120" y="320" as="targetPoint" />
          </mxGeometry>
        </mxCell>
        <mxCell id="xyJbHVWMSOcL-0cqDFhM-10" value="" style="swimlane;startSize=0;strokeWidth=2;fontSize=16;labelBackgroundColor=none;fillStyle=auto;" parent="1" vertex="1">
          <mxGeometry x="110" y="280" width="20" height="90" as="geometry">
            <mxRectangle x="110" y="200" width="50" height="40" as="alternateBounds" />
          </mxGeometry>
        </mxCell>
        <mxCell id="xyJbHVWMSOcL-0cqDFhM-33" value="" style="swimlane;startSize=0;strokeWidth=2;fontSize=16;labelBackgroundColor=none;fillStyle=auto;" parent="1" vertex="1">
          <mxGeometry x="300" y="320" width="20" height="40" as="geometry">
            <mxRectangle x="130" y="240" width="50" height="40" as="alternateBounds" />
          </mxGeometry>
        </mxCell>
        <mxCell id="xyJbHVWMSOcL-0cqDFhM-34" value="" style="swimlane;startSize=0;strokeWidth=2;fontSize=16;labelBackgroundColor=none;fillStyle=auto;" parent="1" vertex="1">
          <mxGeometry x="290" y="280" width="20" height="110" as="geometry">
            <mxRectangle x="110" y="200" width="50" height="40" as="alternateBounds" />
          </mxGeometry>
        </mxCell>
        <mxCell id="xyJbHVWMSOcL-0cqDFhM-35" value="" style="endArrow=classic;html=1;rounded=0;strokeWidth=2;fontSize=16;exitX=0.964;exitY=0.086;exitDx=0;exitDy=0;exitPerimeter=0;entryX=1;entryY=0;entryDx=0;entryDy=0;" parent="1" source="xyJbHVWMSOcL-0cqDFhM-34" target="xyJbHVWMSOcL-0cqDFhM-33" edge="1">
          <mxGeometry width="50" height="50" relative="1" as="geometry">
            <mxPoint x="510" y="310" as="sourcePoint" />
            <mxPoint x="380" y="330" as="targetPoint" />
            <Array as="points">
              <mxPoint x="340" y="290" />
              <mxPoint x="340" y="320" />
            </Array>
          </mxGeometry>
        </mxCell>
        <mxCell id="xyJbHVWMSOcL-0cqDFhM-36" value="" style="endArrow=open;html=1;rounded=0;strokeWidth=2;fontSize=16;endFill=0;entryX=0.95;entryY=0.668;entryDx=0;entryDy=0;entryPerimeter=0;" parent="1" edge="1" target="xyJbHVWMSOcL-0cqDFhM-10">
          <mxGeometry width="50" height="50" relative="1" as="geometry">
            <mxPoint x="290" y="340" as="sourcePoint" />
            <mxPoint x="140" y="336" as="targetPoint" />
          </mxGeometry>
        </mxCell>
        <mxCell id="xyJbHVWMSOcL-0cqDFhM-37" value="" style="swimlane;startSize=0;strokeWidth=2;fontSize=16;labelBackgroundColor=none;fillStyle=auto;" parent="1" vertex="1">
          <mxGeometry x="290" y="450" width="20" height="110" as="geometry">
            <mxRectangle x="110" y="200" width="50" height="40" as="alternateBounds" />
          </mxGeometry>
        </mxCell>
        <mxCell id="xyJbHVWMSOcL-0cqDFhM-38" value="" style="swimlane;startSize=0;strokeWidth=2;fontSize=16;labelBackgroundColor=none;fillStyle=auto;" parent="1" vertex="1">
          <mxGeometry x="470" y="310" width="20" height="310" as="geometry">
            <mxRectangle x="110" y="200" width="50" height="40" as="alternateBounds" />
          </mxGeometry>
        </mxCell>
        <mxCell id="xyJbHVWMSOcL-0cqDFhM-39" value="" style="endArrow=none;dashed=1;html=1;dashPattern=1 3;strokeWidth=2;rounded=0;fontSize=16;entryX=0.5;entryY=1;entryDx=0;entryDy=0;exitX=0.5;exitY=0;exitDx=0;exitDy=0;" parent="1" source="xyJbHVWMSOcL-0cqDFhM-37" target="xyJbHVWMSOcL-0cqDFhM-34" edge="1">
          <mxGeometry width="50" height="50" relative="1" as="geometry">
            <mxPoint x="330" y="410" as="sourcePoint" />
            <mxPoint x="380" y="360" as="targetPoint" />
          </mxGeometry>
        </mxCell>
        <mxCell id="xyJbHVWMSOcL-0cqDFhM-40" value="" style="swimlane;startSize=0;strokeWidth=2;fontSize=16;labelBackgroundColor=none;fillStyle=auto;" parent="1" vertex="1">
          <mxGeometry x="480" y="350.54" width="20" height="40" as="geometry">
            <mxRectangle x="130" y="240" width="50" height="40" as="alternateBounds" />
          </mxGeometry>
        </mxCell>
        <mxCell id="xyJbHVWMSOcL-0cqDFhM-41" value="" style="endArrow=classic;html=1;rounded=0;strokeWidth=2;fontSize=16;exitX=0.964;exitY=0.086;exitDx=0;exitDy=0;exitPerimeter=0;entryX=1;entryY=0;entryDx=0;entryDy=0;" parent="1" target="xyJbHVWMSOcL-0cqDFhM-40" edge="1">
          <mxGeometry width="50" height="50" relative="1" as="geometry">
            <mxPoint x="489.28" y="320.00000000000006" as="sourcePoint" />
            <mxPoint x="560" y="360.54" as="targetPoint" />
            <Array as="points">
              <mxPoint x="520" y="320.54" />
              <mxPoint x="520" y="350.54" />
            </Array>
          </mxGeometry>
        </mxCell>
        <mxCell id="xyJbHVWMSOcL-0cqDFhM-42" value="" style="swimlane;startSize=0;strokeWidth=2;fontSize=16;labelBackgroundColor=none;fillStyle=auto;" parent="1" vertex="1">
          <mxGeometry x="650" y="530" width="20" height="90" as="geometry">
            <mxRectangle x="110" y="200" width="50" height="40" as="alternateBounds" />
          </mxGeometry>
        </mxCell>
        <mxCell id="xyJbHVWMSOcL-0cqDFhM-43" value="&lt;font style=&quot;font-size: 16px;&quot;&gt;Query data&lt;/font&gt;" style="text;html=1;align=center;verticalAlign=middle;resizable=0;points=[];autosize=1;strokeColor=none;fillColor=none;fontSize=16;" parent="1" vertex="1">
          <mxGeometry x="510" y="320" width="100" height="30" as="geometry" />
        </mxCell>
        <mxCell id="xyJbHVWMSOcL-0cqDFhM-44" value="Create&lt;br&gt;data frame" style="text;html=1;align=center;verticalAlign=middle;resizable=0;points=[];autosize=1;strokeColor=none;fillColor=none;fontSize=16;" parent="1" vertex="1">
          <mxGeometry x="340" y="280" width="100" height="50" as="geometry" />
        </mxCell>
        <mxCell id="xyJbHVWMSOcL-0cqDFhM-47" value="Save data" style="text;html=1;align=center;verticalAlign=middle;resizable=0;points=[];autosize=1;strokeColor=none;fillColor=none;fontSize=16;" parent="1" vertex="1">
          <mxGeometry x="330" y="450" width="100" height="30" as="geometry" />
        </mxCell>
        <mxCell id="xyJbHVWMSOcL-0cqDFhM-48" value="Consume data&lt;br&gt;from topic" style="text;html=1;align=center;verticalAlign=middle;resizable=0;points=[];autosize=1;strokeColor=none;fillColor=none;fontSize=16;" parent="1" vertex="1">
          <mxGeometry x="150" y="290" width="130" height="50" as="geometry" />
        </mxCell>
        <mxCell id="xyJbHVWMSOcL-0cqDFhM-49" value="" style="endArrow=none;html=1;rounded=0;strokeWidth=2;fontSize=16;exitX=1;exitY=0.25;exitDx=0;exitDy=0;entryX=0.055;entryY=0.544;entryDx=0;entryDy=0;entryPerimeter=0;startArrow=classic;startFill=1;endFill=0;" parent="1" edge="1">
          <mxGeometry width="50" height="50" relative="1" as="geometry">
            <mxPoint x="490" y="540" as="sourcePoint" />
            <mxPoint x="651.0999999999999" y="541.1400000000001" as="targetPoint" />
          </mxGeometry>
        </mxCell>
        <mxCell id="xyJbHVWMSOcL-0cqDFhM-50" value="" style="endArrow=classic;html=1;rounded=0;strokeWidth=2;fontSize=16;exitX=1;exitY=0.25;exitDx=0;exitDy=0;entryX=0.055;entryY=0.544;entryDx=0;entryDy=0;entryPerimeter=0;startArrow=none;startFill=0;endFill=1;" parent="1" edge="1">
          <mxGeometry width="50" height="50" relative="1" as="geometry">
            <mxPoint x="490" y="600" as="sourcePoint" />
            <mxPoint x="651.0999999999999" y="601.1400000000003" as="targetPoint" />
          </mxGeometry>
        </mxCell>
        <mxCell id="xyJbHVWMSOcL-0cqDFhM-51" value="Visualize data" style="text;html=1;align=center;verticalAlign=middle;resizable=0;points=[];autosize=1;strokeColor=none;fillColor=none;fontSize=16;" parent="1" vertex="1">
          <mxGeometry x="520" y="573" width="120" height="30" as="geometry" />
        </mxCell>
        <mxCell id="xyJbHVWMSOcL-0cqDFhM-52" value="Request data" style="text;html=1;align=center;verticalAlign=middle;resizable=0;points=[];autosize=1;strokeColor=none;fillColor=none;fontSize=16;" parent="1" vertex="1">
          <mxGeometry x="520" y="513" width="120" height="30" as="geometry" />
        </mxCell>
        <mxCell id="xyJbHVWMSOcL-0cqDFhM-53" value="" style="endArrow=none;dashed=1;html=1;dashPattern=1 4;strokeWidth=2;rounded=0;fontSize=16;entryX=0.5;entryY=1;entryDx=0;entryDy=0;" parent="1" target="xyJbHVWMSOcL-0cqDFhM-37" edge="1">
          <mxGeometry width="50" height="50" relative="1" as="geometry">
            <mxPoint x="300" y="720" as="sourcePoint" />
            <mxPoint x="380" y="550" as="targetPoint" />
          </mxGeometry>
        </mxCell>
        <mxCell id="xyJbHVWMSOcL-0cqDFhM-54" value="" style="endArrow=none;dashed=1;html=1;dashPattern=1 4;strokeWidth=2;rounded=0;fontSize=16;entryX=0.5;entryY=1;entryDx=0;entryDy=0;" parent="1" edge="1">
          <mxGeometry width="50" height="50" relative="1" as="geometry">
            <mxPoint x="480" y="720" as="sourcePoint" />
            <mxPoint x="480" y="610" as="targetPoint" />
          </mxGeometry>
        </mxCell>
        <mxCell id="xyJbHVWMSOcL-0cqDFhM-55" value="" style="endArrow=none;dashed=1;html=1;strokeWidth=2;rounded=0;fontSize=16;dashPattern=1 4;" parent="1" edge="1">
          <mxGeometry width="50" height="50" relative="1" as="geometry">
            <mxPoint x="659.5" y="720" as="sourcePoint" />
            <mxPoint x="660" y="620" as="targetPoint" />
          </mxGeometry>
        </mxCell>
        <mxCell id="xhQkRAdqgB3zj29XE9IB-1" value="&lt;b&gt;&lt;font style=&quot;font-size: 16px;&quot;&gt;Wearable Device&lt;/font&gt;&lt;/b&gt;" style="whiteSpace=wrap;html=1;aspect=fixed;strokeWidth=2;" vertex="1" parent="1">
          <mxGeometry x="-100" y="80" width="80" height="80" as="geometry" />
        </mxCell>
        <mxCell id="xhQkRAdqgB3zj29XE9IB-2" value="" style="endArrow=none;dashed=1;html=1;dashPattern=1 3;strokeWidth=2;rounded=0;fontSize=16;entryX=0.5;entryY=1;entryDx=0;entryDy=0;exitX=0.5;exitY=0;exitDx=0;exitDy=0;" edge="1" parent="1" source="xhQkRAdqgB3zj29XE9IB-5" target="xhQkRAdqgB3zj29XE9IB-1">
          <mxGeometry width="50" height="50" relative="1" as="geometry">
            <mxPoint x="20" y="300" as="sourcePoint" />
            <mxPoint x="260" y="210" as="targetPoint" />
          </mxGeometry>
        </mxCell>
        <mxCell id="xhQkRAdqgB3zj29XE9IB-4" value="" style="endArrow=none;dashed=1;html=1;dashPattern=1 3;strokeWidth=2;rounded=0;fontSize=16;entryX=0.5;entryY=1;entryDx=0;entryDy=0;" edge="1" parent="1" target="xhQkRAdqgB3zj29XE9IB-5">
          <mxGeometry width="50" height="50" relative="1" as="geometry">
            <mxPoint x="-60" y="720" as="sourcePoint" />
            <mxPoint x="-60" y="320" as="targetPoint" />
          </mxGeometry>
        </mxCell>
        <mxCell id="xhQkRAdqgB3zj29XE9IB-5" value="" style="swimlane;startSize=0;strokeWidth=2;fontSize=16;labelBackgroundColor=none;fillStyle=auto;" vertex="1" parent="1">
          <mxGeometry x="-70" y="195" width="20" height="115" as="geometry">
            <mxRectangle x="110" y="200" width="50" height="40" as="alternateBounds" />
          </mxGeometry>
        </mxCell>
        <mxCell id="xhQkRAdqgB3zj29XE9IB-7" value="&lt;b&gt;&lt;font style=&quot;font-size: 16px;&quot;&gt;User&lt;/font&gt;&lt;/b&gt;" style="whiteSpace=wrap;html=1;aspect=fixed;strokeWidth=2;" vertex="1" parent="1">
          <mxGeometry x="-280" y="80" width="80" height="80" as="geometry" />
        </mxCell>
        <mxCell id="xhQkRAdqgB3zj29XE9IB-8" value="" style="endArrow=none;dashed=1;html=1;dashPattern=1 3;strokeWidth=2;rounded=0;fontSize=16;entryX=0.5;entryY=1;entryDx=0;entryDy=0;exitX=0.5;exitY=0;exitDx=0;exitDy=0;" edge="1" parent="1" source="xhQkRAdqgB3zj29XE9IB-11" target="xhQkRAdqgB3zj29XE9IB-7">
          <mxGeometry width="50" height="50" relative="1" as="geometry">
            <mxPoint x="-160" y="300" as="sourcePoint" />
            <mxPoint x="80" y="210" as="targetPoint" />
          </mxGeometry>
        </mxCell>
        <mxCell id="xhQkRAdqgB3zj29XE9IB-10" value="" style="endArrow=none;dashed=1;html=1;dashPattern=1 3;strokeWidth=2;rounded=0;fontSize=16;entryX=0.5;entryY=1;entryDx=0;entryDy=0;" edge="1" parent="1" target="xhQkRAdqgB3zj29XE9IB-11">
          <mxGeometry width="50" height="50" relative="1" as="geometry">
            <mxPoint x="-240" y="720" as="sourcePoint" />
            <mxPoint x="-240" y="320" as="targetPoint" />
          </mxGeometry>
        </mxCell>
        <mxCell id="xhQkRAdqgB3zj29XE9IB-11" value="" style="swimlane;startSize=0;strokeWidth=2;fontSize=16;labelBackgroundColor=none;fillStyle=auto;" vertex="1" parent="1">
          <mxGeometry x="-250" y="195" width="20" height="85" as="geometry">
            <mxRectangle x="110" y="200" width="50" height="40" as="alternateBounds" />
          </mxGeometry>
        </mxCell>
        <mxCell id="xhQkRAdqgB3zj29XE9IB-13" value="Send&lt;br&gt;data" style="text;html=1;align=center;verticalAlign=middle;resizable=0;points=[];autosize=1;strokeColor=none;fillColor=none;fontSize=16;" vertex="1" parent="1">
          <mxGeometry x="-10" y="240" width="60" height="50" as="geometry" />
        </mxCell>
        <mxCell id="xhQkRAdqgB3zj29XE9IB-14" value="" style="endArrow=classic;html=1;rounded=0;entryX=-0.105;entryY=0.147;entryDx=0;entryDy=0;entryPerimeter=0;strokeWidth=2;" edge="1" parent="1" target="xyJbHVWMSOcL-0cqDFhM-10">
          <mxGeometry width="50" height="50" relative="1" as="geometry">
            <mxPoint x="-50" y="293" as="sourcePoint" />
            <mxPoint x="140" y="350" as="targetPoint" />
          </mxGeometry>
        </mxCell>
        <mxCell id="xhQkRAdqgB3zj29XE9IB-15" value="" style="endArrow=classic;html=1;rounded=0;strokeWidth=2;" edge="1" parent="1">
          <mxGeometry width="50" height="50" relative="1" as="geometry">
            <mxPoint x="-70" y="211" as="sourcePoint" />
            <mxPoint x="-230" y="211" as="targetPoint" />
          </mxGeometry>
        </mxCell>
        <mxCell id="xhQkRAdqgB3zj29XE9IB-16" value="Read&lt;br&gt;data" style="text;html=1;align=center;verticalAlign=middle;resizable=0;points=[];autosize=1;strokeColor=none;fillColor=none;fontSize=16;" vertex="1" parent="1">
          <mxGeometry x="-180" y="170" width="60" height="50" as="geometry" />
        </mxCell>
        <mxCell id="xhQkRAdqgB3zj29XE9IB-17" value="" style="endArrow=classic;html=1;rounded=0;entryX=0.061;entryY=0.616;entryDx=0;entryDy=0;entryPerimeter=0;strokeWidth=2;exitX=1.006;exitY=0.859;exitDx=0;exitDy=0;exitPerimeter=0;" edge="1" parent="1" source="xhQkRAdqgB3zj29XE9IB-11" target="xhQkRAdqgB3zj29XE9IB-5">
          <mxGeometry width="50" height="50" relative="1" as="geometry">
            <mxPoint x="-230" y="280" as="sourcePoint" />
            <mxPoint x="-72.21999999999991" y="280" as="targetPoint" />
          </mxGeometry>
        </mxCell>
        <mxCell id="xhQkRAdqgB3zj29XE9IB-18" value="Response&amp;nbsp;" style="text;html=1;align=center;verticalAlign=middle;resizable=0;points=[];autosize=1;strokeColor=none;fillColor=none;fontSize=16;" vertex="1" parent="1">
          <mxGeometry x="-200" y="270" width="100" height="30" as="geometry" />
        </mxCell>
      </root>
    </mxGraphModel>
  </diagram>
</mxfile>
